<?xml version="1.0" standalone="no"?>
<!DOCTYPE svg PUBLIC "-//W3C//DTD SVG 20010904//EN"
 "http://www.w3.org/TR/2001/REC-SVG-20010904/DTD/svg10.dtd">
<svg version="1.0" xmlns="http://www.w3.org/2000/svg"
 width="2056.000000pt" height="490.000000pt" viewBox="0 0 2056.000000 490.000000"
 preserveAspectRatio="xMidYMid meet">

<g transform="translate(0.000000,490.000000) scale(0.100000,-0.100000)"
fill="#000000" stroke="none">
<path d="M10062 3378 c-101 -95 -597 -597 -732 -743 -98 -105 -498 -522 -677
-705 l-142 -145 -807 808 -807 807 -3349 0 -3348 0 0 -270 0 -270 3208 0 3207
0 948 -947 947 -948 77 80 c137 143 334 347 488 505 442 455 778 820 944 1023
39 49 93 104 120 122 l49 34 219 -242 c201 -221 380 -411 1177 -1246 l270
-282 460 458 c253 252 669 667 924 922 l464 464 2796 -9 c1539 -5 2995 -9
3237 -9 l440 0 3 255 c1 140 0 265 -3 276 l-5 21 -1412 6 c-777 3 -1766 13
-2198 21 -2055 41 -2835 56 -2943 56 l-119 0 -826 -826 -827 -826 -160 165
c-88 90 -442 454 -786 808 -553 568 -714 729 -733 729 -2 0 -49 -42 -104 -92z"/>
</g>
</svg>
